<svg width="24" height="24" viewBox="0 0 24 24" fill="none" xmlns="http://www.w3.org/2000/svg">
<path d="M12.22 2H11.78L10.57 4.57C10.14 4.73 9.72 4.94 9.32 5.2L6.78 3.78L4.78 7.22L6.64 9.36C6.57 9.79 6.57 10.23 6.64 10.66L4.78 12.8L6.78 16.24L9.32 14.78C9.72 15.04 10.14 15.25 10.57 15.41L11.78 18H12.22L13.43 15.41C13.85 15.25 14.27 15.04 14.67 14.78L17.22 16.24L19.22 12.8L17.36 10.66C17.43 10.23 17.43 9.79 17.36 9.36L19.22 7.22L17.22 3.78L14.67 5.2C14.27 4.94 13.85 4.73 13.43 4.57L12.22 2Z" stroke="#333333" stroke-width="2" stroke-linecap="round" stroke-linejoin="round"/>
<circle cx="12" cy="10" r="3" stroke="#333333" stroke-width="2" stroke-linecap="round" stroke-linejoin="round"/>
</svg>
